<svg width="33" height="33" viewBox="0 0 33 33" fill="none" xmlns="http://www.w3.org/2000/svg">
<path d="M29.574 13.8886H28.5V13.8333H16.5V19.1666H24.0353C22.936 22.2713 19.982 24.5 16.5 24.5C12.082 24.5 8.49996 20.918 8.49996 16.5C8.49996 12.082 12.082 8.49996 16.5 8.49996C18.5393 8.49996 20.3946 9.26929 21.8073 10.526L25.5786 6.75463C23.1973 4.53529 20.012 3.16663 16.5 3.16663C9.13663 3.16663 3.16663 9.13663 3.16663 16.5C3.16663 23.8633 9.13663 29.8333 16.5 29.8333C23.8633 29.8333 29.8333 23.8633 29.8333 16.5C29.8333 15.606 29.7413 14.7333 29.574 13.8886Z" fill="#FBC02D"/>
<path d="M4.70398 10.294L9.08465 13.5066C10.27 10.572 13.1406 8.49996 16.5 8.49996C18.5393 8.49996 20.3946 9.26929 21.8073 10.526L25.5786 6.75463C23.1973 4.53529 20.012 3.16663 16.5 3.16663C11.3786 3.16663 6.93731 6.05796 4.70398 10.294Z" fill="#E53935"/>
<path d="M16.5 29.8333C19.944 29.8333 23.0733 28.5153 25.4393 26.372L21.3127 22.88C19.974 23.894 18.31 24.5 16.5 24.5C13.032 24.5 10.0873 22.2886 8.978 19.2026L4.63 22.5526C6.83667 26.8706 11.318 29.8333 16.5 29.8333Z" fill="#4CAF50"/>
<path d="M29.574 13.8887L29.5633 13.8334H28.5H16.5V19.1667H24.0353C23.5073 20.658 22.548 21.944 21.3107 22.8807L21.3127 22.8794L25.4393 26.3714C25.1473 26.6367 29.8333 23.1667 29.8333 16.5C29.8333 15.606 29.7413 14.7334 29.574 13.8887Z" fill="#1565C0"/>
</svg>
